<svg xmlns="http://www.w3.org/2000/svg" viewBox="0 0 616.19 66.48"><g id="Layer_2" data-name="Layer 2"><g id="Layer_1-2" data-name="Layer 1"><path d="M24.6,65.59V34.48l.63,4.36L0,3.19H8.47L29.15,32.78l-1.87-.18,19-29.41h8L30.13,39.83l1.34-6.07V65.59Z"/><path d="M91.47,66.48a29.46,29.46,0,0,1-11.85-2.36,28.51,28.51,0,0,1-9.47-6.65A30.17,30.17,0,0,1,63.9,47.36a35.72,35.72,0,0,1-2.22-12.79,35.77,35.77,0,0,1,2.22-12.8,30.8,30.8,0,0,1,6.25-10.16,28.17,28.17,0,0,1,9.47-6.68,31.18,31.18,0,0,1,23.8,0,28.23,28.23,0,0,1,9.46,6.68,30.82,30.82,0,0,1,6.26,10.16,36,36,0,0,1,2.21,12.8,35.67,35.67,0,0,1-2.21,12.7,30.72,30.72,0,0,1-6.26,10.16,28.4,28.4,0,0,1-9.46,6.69A29.71,29.71,0,0,1,91.47,66.48Zm0-6.87a22.78,22.78,0,0,0,9.17-1.82,20.8,20.8,0,0,0,7.25-5.22,24.55,24.55,0,0,0,4.73-8,28.71,28.71,0,0,0,1.69-10,29,29,0,0,0-1.69-10.12,24.65,24.65,0,0,0-4.73-8,21.3,21.3,0,0,0-7.25-5.26,23.39,23.39,0,0,0-18.33,0,21.21,21.21,0,0,0-7.25,5.26,23.88,23.88,0,0,0-4.69,8,29.72,29.72,0,0,0-1.65,10.12,29.42,29.42,0,0,0,1.65,10,23.78,23.78,0,0,0,4.69,8,20.71,20.71,0,0,0,7.25,5.22A22.73,22.73,0,0,0,91.47,59.61Z"/><path d="M159.61,66.21a26.8,26.8,0,0,1-13.11-3.16,23.42,23.42,0,0,1-9.06-8.74,24.27,24.27,0,0,1-3.31-12.61V3.19h7.26v37.7a18.47,18.47,0,0,0,2.42,9.45,17.66,17.66,0,0,0,6.55,6.6,18.1,18.1,0,0,0,9.25,2.41,19.17,19.17,0,0,0,9.63-2.41,17.46,17.46,0,0,0,6.64-6.6,18.47,18.47,0,0,0,2.42-9.45V3.19h7V41.7A24.27,24.27,0,0,1,182,54.31a23.38,23.38,0,0,1-9.12,8.74A27.24,27.24,0,0,1,159.61,66.21Z"/><path d="M296.93,66.48V1.6h28.51q10.49,0,15.27,5.44t4.78,14.71A19.56,19.56,0,0,1,342,33.63q-3.48,4.74-10.33,6.35A19.32,19.32,0,0,1,336,44a49.36,49.36,0,0,1,3.82,6.12l9.88,16.37h-8.46L331.6,49.77c-2.51-3.72-3-4.39-6.11-6.46-1.26-.84-3.44-1.31-6.59-1.31H305.19V66.48Zm8.26-30.93h17.94q6.54,0,10.32-3.28t3.78-10.52q0-13.6-13-13.6h-19Z"/><path d="M362.55,66.48V1.6H407.3V8.15H371V30.81h32.61v6.45H371V60H407.3v6.45Z"/><path d="M462.85,66.48V8.15H441.39V1.6h51.14V8.15H471.07V66.48Z"/><path d="M505.38,66.48V1.6h8.32V30.81h34.5V1.6h8.32V66.48H548.2V37.26H513.7V66.48Z"/><path d="M571.44,66.48V1.6h44.75V8.15H579.87V30.81h32.61v6.45H579.87V60h36.32v6.45Z"/><path d="M284.15,65.59,256.49,0h-9.25L219.37,65.59h8.32l17.67-42.07c.63-1.56,1.25-3.12,1.88-4.69l1.87-4.73q.93-2.38,1.82-4.78c.24-.64.46-1.28.69-1.92.18.48.37,1,.56,1.5.58,1.63,1.21,3.3,1.87,5s1.28,3.38,1.87,5,1.12,3,1.61,4.17L265.86,43c-11.55,2.31-35,8.54-38,21.26,0,0,18.32-15.09,41.37-13.14l6.06,14.5Z"/></g></g></svg>