<svg xmlns="http://www.w3.org/2000/svg" xmlns:xlink="http://www.w3.org/1999/xlink" viewBox="0 0 984.15 915.9"><defs><style>.cls-1{fill:none;}.cls-2{clip-path:url(#clip-path);}.cls-3{fill:#eaeaea;}.cls-4{fill:#848383;}.cls-5{fill:#494949;}</style><clipPath id="clip-path" transform="translate(-85.68 -134.07)"><rect class="cls-1" width="1134.37" height="1134.37"/></clipPath></defs><g id="Layer_2" data-name="Layer 2"><g id="Layer_1-2" data-name="Layer 1"><g class="cls-2"><circle class="cls-3" cx="482.58" cy="95.18" r="87.9"/><path class="cls-4" d="M568.26,324.44a95.19,95.19,0,1,1,95.18-95.18A95.29,95.29,0,0,1,568.26,324.44Zm0-175.8a80.62,80.62,0,1,0,80.61,80.62A80.71,80.71,0,0,0,568.26,148.64Z" transform="translate(-85.68 -134.07)"/><rect class="cls-3" x="363.07" y="226.96" width="239.02" height="462.24" rx="72.7"/><path class="cls-4" d="M617.56,830.55H519a77.58,77.58,0,0,1-77.49-77.49V431.24A77.58,77.58,0,0,1,519,353.75h98.6a77.58,77.58,0,0,1,77.49,77.49V753.06A77.58,77.58,0,0,1,617.56,830.55ZM519,368.32A63,63,0,0,0,456,431.24V753.06A63,63,0,0,0,519,816h98.6a63,63,0,0,0,62.92-62.93V431.24a63,63,0,0,0-62.92-62.92Z" transform="translate(-85.68 -134.07)"/><path class="cls-4" d="M906.45,382.72a95.19,95.19,0,1,1,95.19-95.19A95.29,95.29,0,0,1,906.45,382.72Zm0-175.8a80.62,80.62,0,1,0,80.62,80.61A80.71,80.71,0,0,0,906.45,206.92Z" transform="translate(-85.68 -134.07)"/><path class="cls-4" d="M982.66,888.83H830.25A87.17,87.17,0,0,1,744,789l44.49-302.47c6.25-42.46,43.33-74.48,86.25-74.48h63.43c42.92,0,80,32,86.25,74.48L1068.91,789a87.17,87.17,0,0,1-86.25,99.85ZM874.74,426.6a73,73,0,0,0-71.83,62L758.42,791.1a72.59,72.59,0,0,0,71.83,83.16H982.66a72.59,72.59,0,0,0,71.83-83.16L1010,488.63a73,73,0,0,0-71.83-62Z" transform="translate(-85.68 -134.07)"/><path class="cls-4" d="M230.07,382.72a95.19,95.19,0,1,1,95.17-95.19A95.3,95.3,0,0,1,230.07,382.72Zm0-175.8a80.62,80.62,0,1,0,80.6,80.61A80.71,80.71,0,0,0,230.07,206.92Z" transform="translate(-85.68 -134.07)"/><path class="cls-4" d="M243.52,888.84H216.61A115.4,115.4,0,0,1,104.74,802a612.69,612.69,0,0,1,0-303.1A115.41,115.41,0,0,1,216.58,412h27a115.43,115.43,0,0,1,111.87,86.82,612.47,612.47,0,0,1,.06,302.78A115.53,115.53,0,0,1,243.52,888.84ZM216.58,426.6a100.86,100.86,0,0,0-97.76,75.87A598,598,0,0,0,118.76,798a101,101,0,0,0,97.85,76.25h26.91a100.86,100.86,0,0,0,97.76-75.92,598,598,0,0,0,0-295.88,100.86,100.86,0,0,0-97.75-75.87Z" transform="translate(-85.68 -134.07)"/></g><polygon class="cls-5" points="495.59 574.43 498.22 915.9 582.2 807.66 716.35 835.45 495.59 574.43"/></g></g></svg>