<svg xmlns="http://www.w3.org/2000/svg" viewBox="0 0 254.26 266.76"><defs><style>.cls-1{fill:#adadad;}.cls-2{fill:#515151;}</style></defs><g id="Layer_2" data-name="Layer 2"><g id="Layer_1-2" data-name="Layer 1"><path class="cls-1" d="M112.77,110.87A55.44,55.44,0,1,1,168.2,55.44,55.5,55.5,0,0,1,112.77,110.87ZM112.77,7a48.46,48.46,0,1,0,48.45,48.46A48.52,48.52,0,0,0,112.77,7Z"/><path class="cls-2" d="M114,192.28h13.08v9h.32a15.07,15.07,0,0,1,5.86-7.35,16.84,16.84,0,0,1,9.65-2.77,17.42,17.42,0,0,1,7,1.34,14.71,14.71,0,0,1,5.31,3.85,15.55,15.55,0,0,1,3.19,6.09h.26a16.83,16.83,0,0,1,3.93-6,18.53,18.53,0,0,1,6-3.91,19.77,19.77,0,0,1,7.47-1.39,19,19,0,0,1,9.62,2.34,16.61,16.61,0,0,1,6.39,6.54,20.21,20.21,0,0,1,2.29,9.84v38.35H181.27V213.06c0-3.45-.87-6.12-2.59-8s-4.2-2.85-7.44-2.85a10.59,10.59,0,0,0-5.56,1.45,10.09,10.09,0,0,0-3.75,4,12.8,12.8,0,0,0-1.34,6v34.55H147.82V212.37a10.18,10.18,0,0,0-2.66-7.46,9.7,9.7,0,0,0-7.25-2.72,10.24,10.24,0,0,0-5.59,1.53,10.78,10.78,0,0,0-3.83,4.17,12.78,12.78,0,0,0-1.4,6.06v34.24H114Z"/><path class="cls-2" d="M208,266.57c-1.21-.12-2.22-.26-3-.4v-10l1.84.26a19.06,19.06,0,0,0,2.54.16,12,12,0,0,0,6-1.29,8.71,8.71,0,0,0,3.48-4.83l.79-2.27-20.1-56h14.3l13.92,47.47-2-2.74h2.8l-2,2.74,13.93-47.47h13.82l-20.15,57.81a31.69,31.69,0,0,1-5.12,9.78,17.1,17.1,0,0,1-7.25,5.28,28.4,28.4,0,0,1-10.05,1.61C210.42,266.76,209.18,266.69,208,266.57Z"/><path class="cls-1" d="M79.08,233.46h-.17l-6-.31c-18.21-1-36.82-2-54.79-7.22v0a24.28,24.28,0,0,1-10.07-6.58C4,215-.74,206.93.1,193.44c1.47-23.88,21-59.91,60-65.23v0a38.66,38.66,0,0,1,4.13-.6l.58-.07c7.29-.94,13.37-1.61,19.11-2.11a329.58,329.58,0,0,1,45.92-.82c10.77.57,22.1,1.7,35.64,3.56a67.16,67.16,0,0,1,43.78,25.14,3.49,3.49,0,1,1-5.45,4.37,60.29,60.29,0,0,0-39.27-22.6c-13.35-1.82-24.5-2.93-35.07-3.49a321.65,321.65,0,0,0-44.94.79c-5.65.5-11.63,1.16-18.83,2.08l-.67.08-1,.11v0l-3,.41c-35,4.79-52.63,37.24-54,58.75C5.79,214.49,19.41,219,20.11,219.24c17.19,5,35.39,6,53,6.93l6.14.31a3.49,3.49,0,0,1-.16,7Z"/></g></g></svg>