<svg xmlns="http://www.w3.org/2000/svg" viewBox="0 0 782.6 782.6"><defs><style>.cls-1{fill:#fff;}.cls-2{fill:#848383;}</style></defs><g id="Layer_2" data-name="Layer 2"><g id="Layer_1-2" data-name="Layer 1"><rect class="cls-1" width="782.6" height="782.6"/><polyline class="cls-1" points="603.67 270.43 139.87 270.43 139.87 208.34 603.67 208.34"/><path class="cls-2" d="M603.67,275.48H134.81v-72.2H603.67a5.06,5.06,0,0,1,0,10.11H144.92v52H603.67a5.05,5.05,0,1,1,0,10.1Z"/><line class="cls-1" x1="177.06" y1="208.34" x2="177.06" y2="231.16"/><path class="cls-2" d="M177.06,236.21a5,5,0,0,1-5.05-5.05V208.34a5.05,5.05,0,1,1,10.1,0v22.82A5,5,0,0,1,177.06,236.21Z"/><line class="cls-1" x1="206.42" y1="208.34" x2="206.42" y2="243.77"/><path class="cls-2" d="M206.42,248.83a5.06,5.06,0,0,1-5-5.06V208.34a5.05,5.05,0,1,1,10.1,0v35.43A5.06,5.06,0,0,1,206.42,248.83Z"/><line class="cls-1" x1="235.78" y1="208.34" x2="235.78" y2="231.16"/><path class="cls-2" d="M235.78,236.21a5,5,0,0,1-5.05-5.05V208.34a5.05,5.05,0,1,1,10.1,0v22.82A5,5,0,0,1,235.78,236.21Z"/><line class="cls-1" x1="265.14" y1="208.34" x2="265.14" y2="243.77"/><path class="cls-2" d="M265.14,248.83a5.07,5.07,0,0,1-5.06-5.06V208.34a5.06,5.06,0,1,1,10.11,0v35.43A5.06,5.06,0,0,1,265.14,248.83Z"/><line class="cls-1" x1="294.5" y1="208.34" x2="294.5" y2="231.16"/><path class="cls-2" d="M294.5,236.21a5.05,5.05,0,0,1-5.06-5.05V208.34a5.06,5.06,0,1,1,10.11,0v22.82A5,5,0,0,1,294.5,236.21Z"/><line class="cls-1" x1="323.85" y1="208.34" x2="323.85" y2="243.77"/><path class="cls-2" d="M323.86,248.83a5.06,5.06,0,0,1-5.06-5.06V208.34a5.06,5.06,0,1,1,10.11,0v35.43A5.06,5.06,0,0,1,323.86,248.83Z"/><line class="cls-1" x1="353.21" y1="208.34" x2="353.21" y2="231.16"/><path class="cls-2" d="M353.21,236.21a5,5,0,0,1-5-5.05V208.34a5.06,5.06,0,1,1,10.11,0v22.82A5.05,5.05,0,0,1,353.21,236.21Z"/><line class="cls-1" x1="382.57" y1="208.34" x2="382.57" y2="243.77"/><path class="cls-2" d="M382.57,248.83a5.06,5.06,0,0,1-5.05-5.06V208.34a5.06,5.06,0,1,1,10.11,0v35.43A5.07,5.07,0,0,1,382.57,248.83Z"/><line class="cls-1" x1="411.93" y1="208.34" x2="411.93" y2="231.16"/><path class="cls-2" d="M411.93,236.21a5,5,0,0,1-5.05-5.05V208.34a5.05,5.05,0,1,1,10.1,0v22.82A5,5,0,0,1,411.93,236.21Z"/><line class="cls-1" x1="441.29" y1="208.34" x2="441.29" y2="243.77"/><path class="cls-2" d="M441.29,248.83a5.06,5.06,0,0,1-5.05-5.06V208.34a5.05,5.05,0,1,1,10.1,0v35.43A5.06,5.06,0,0,1,441.29,248.83Z"/><line class="cls-1" x1="470.65" y1="208.34" x2="470.65" y2="231.16"/><path class="cls-2" d="M470.65,236.21a5.06,5.06,0,0,1-5.06-5.05V208.34a5.06,5.06,0,1,1,10.11,0v22.82A5,5,0,0,1,470.65,236.21Z"/><line class="cls-1" x1="500.01" y1="208.34" x2="500.01" y2="243.77"/><path class="cls-2" d="M500,248.83a5.06,5.06,0,0,1-5.06-5.06V208.34a5.06,5.06,0,1,1,10.11,0v35.43A5.06,5.06,0,0,1,500,248.83Z"/><line class="cls-1" x1="529.37" y1="208.34" x2="529.37" y2="231.16"/><path class="cls-2" d="M529.37,236.21a5.05,5.05,0,0,1-5.06-5.05V208.34a5.06,5.06,0,1,1,10.11,0v22.82A5,5,0,0,1,529.37,236.21Z"/><path class="cls-1" d="M600.69,682.32s10.86-152.75,8-220.08-40.31-154.31-37.05-223.79,24.66-138.17,24.66-138.17H235.47s21.4,68.7,24.66,138.17-34.19,156.46-37,223.79,8,220.08,8,220.08Z"/><path class="cls-2" d="M394.08,687.37h-.39a5.05,5.05,0,0,1-4.65-5.43c.08-1,7.92-102.63,9-123.81a5.05,5.05,0,1,1,10.09.53c-1.12,21.31-9,123-9.06,124.06A5,5,0,0,1,394.08,687.37Z"/><path class="cls-2" d="M437.71,687.37a5.06,5.06,0,0,1-5-4.66c-.08-1-7.93-102.75-9.06-124.06a5.06,5.06,0,0,1,10.1-.53c1.11,21.18,9,122.78,9,123.81a5.07,5.07,0,0,1-4.65,5.43Z"/><path class="cls-2" d="M414.83,559.11a157.78,157.78,0,0,1-24.9-2,5.06,5.06,0,0,1,1.77-10c.24,0,24,4.16,42.21,0a5.05,5.05,0,1,1,2.22,9.86A99,99,0,0,1,414.83,559.11Z"/><path class="cls-2" d="M231.09,687.37a5,5,0,0,1-5-4.69c-.11-1.53-10.85-153.81-8-220.65,1.3-30.8,9.48-64.62,18.15-100.43,10.15-42,20.66-85.42,18.89-122.91-3.19-68-24.22-136.22-24.43-136.9a5.05,5.05,0,0,1,9.65-3c.21.69,21.62,70.12,24.88,139.44C267,277.15,256.33,321.29,246,364c-8.54,35.32-16.61,68.68-17.87,98.48-2.81,66.28,7.89,218,8,219.51a5.06,5.06,0,0,1-4.68,5.4Z"/><path class="cls-2" d="M600.69,687.37h-.36a5.06,5.06,0,0,1-4.68-5.4c.11-1.52,10.8-153.23,8-219.51-1.26-29.8-9.33-63.16-17.87-98.47-10.33-42.69-21-86.83-19.18-125.76,3.26-69.32,24.67-138.75,24.89-139.44a5.05,5.05,0,0,1,9.65,3c-.21.68-21.25,68.91-24.44,136.9-1.76,37.49,8.74,80.92,18.9,122.91,8.66,35.81,16.84,69.63,18.15,100.43,2.83,66.84-7.91,219.12-8,220.65A5.05,5.05,0,0,1,600.69,687.37Z"/><path class="cls-2" d="M394.81,377.67c-26.67,0-49.17-.75-67.43-1.77-57.56-3.19-85.85-9.47-87-9.74a5.05,5.05,0,0,1,2.22-9.86c.29.06,28.91,6.4,85.77,9.54,52.49,2.89,140.45,3.57,261.41-9.63a5.05,5.05,0,1,1,1.1,10C511,375,445.43,377.67,394.81,377.67Z"/><path class="cls-1" d="M637.91,231.16l8.71,47.29a32.2,32.2,0,0,1-1.25,16.4h0a26.27,26.27,0,0,1-20.21,17.26L117.58,403l-10.94-61.12L623.11,249.4a18,18,0,0,0,13-25.58h0a27.53,27.53,0,0,0-24.76-15.48H598.23"/><path class="cls-2" d="M113.49,408.85l-12.72-71.07,521.45-93.35a13,13,0,0,0,10.67-12.67,4.62,4.62,0,0,1,0-.91,13,13,0,0,0-1.29-4.82,22.6,22.6,0,0,0-20.21-12.64H598.23a5.06,5.06,0,0,1,0-10.11h13.13a32.79,32.79,0,0,1,29.3,18.33,23.08,23.08,0,0,1,2.33,9.26l8.6,46.67a37.36,37.36,0,0,1-1.44,19,31.39,31.39,0,0,1-24.1,20.59Zm-1-62.91,9.16,51.18,502.61-90a21.27,21.27,0,0,0,16.33-13.95,27.17,27.17,0,0,0,1-13.82l-5.72-31.06A22.88,22.88,0,0,1,624,254.37Z"/><line class="cls-1" x1="135.84" y1="336.63" x2="139.87" y2="359.1"/><path class="cls-2" d="M139.86,364.15a5.05,5.05,0,0,1-5-4.16l-4-22.47a5.05,5.05,0,0,1,9.95-1.78l4,22.47a5.05,5.05,0,0,1-4.08,5.86A4.63,4.63,0,0,1,139.86,364.15Z"/><line class="cls-1" x1="164.74" y1="331.46" x2="170.99" y2="366.34"/><path class="cls-2" d="M171,371.39a5.05,5.05,0,0,1-5-4.16l-6.24-34.88a5.05,5.05,0,1,1,9.95-1.78L176,365.45a5.05,5.05,0,0,1-4.08,5.86A4.56,4.56,0,0,1,171,371.39Z"/><line class="cls-1" x1="193.64" y1="326.28" x2="197.66" y2="348.75"/><path class="cls-2" d="M197.66,353.81a5.06,5.06,0,0,1-5-4.17l-4-22.46a5.05,5.05,0,1,1,10-1.79l4,22.47a5.06,5.06,0,0,1-4.09,5.87A5.45,5.45,0,0,1,197.66,353.81Z"/><line class="cls-1" x1="222.54" y1="321.11" x2="228.79" y2="355.99"/><path class="cls-2" d="M228.78,361.05a5.06,5.06,0,0,1-5-4.17L217.57,322a5.05,5.05,0,0,1,10-1.78l6.24,34.88a5.07,5.07,0,0,1-4.08,5.87A5.57,5.57,0,0,1,228.78,361.05Z"/><line class="cls-1" x1="251.44" y1="315.94" x2="255.46" y2="338.4"/><path class="cls-2" d="M255.46,343.46a5.06,5.06,0,0,1-5-4.16l-4-22.47a5.05,5.05,0,1,1,10-1.78l4,22.46a5.06,5.06,0,0,1-4.09,5.87A5.45,5.45,0,0,1,255.46,343.46Z"/><line class="cls-1" x1="280.34" y1="310.76" x2="286.58" y2="345.64"/><path class="cls-2" d="M286.58,350.7a5.06,5.06,0,0,1-5-4.16l-6.24-34.89a5,5,0,1,1,9.94-1.78l6.25,34.88a5.06,5.06,0,0,1-4.09,5.87A5.45,5.45,0,0,1,286.58,350.7Z"/><line class="cls-1" x1="309.24" y1="305.59" x2="313.26" y2="328.06"/><path class="cls-2" d="M313.25,333.11a5,5,0,0,1-5-4.16l-4-22.47a5,5,0,0,1,9.94-1.78l4,22.47a5.06,5.06,0,0,1-4.09,5.86A4.56,4.56,0,0,1,313.25,333.11Z"/><line class="cls-1" x1="338.14" y1="300.42" x2="344.38" y2="335.3"/><path class="cls-2" d="M344.38,340.35a5.06,5.06,0,0,1-5-4.16l-6.25-34.88a5.05,5.05,0,1,1,9.95-1.78l6.25,34.88a5.06,5.06,0,0,1-4.09,5.86A5.45,5.45,0,0,1,344.38,340.35Z"/><line class="cls-1" x1="367.04" y1="295.24" x2="371.06" y2="317.71"/><path class="cls-2" d="M371.05,322.76a5,5,0,0,1-5-4.16l-4-22.47a5.05,5.05,0,0,1,9.95-1.78l4,22.47a5,5,0,0,1-4.08,5.86A4.56,4.56,0,0,1,371.05,322.76Z"/><line class="cls-1" x1="395.94" y1="290.07" x2="402.18" y2="324.95"/><path class="cls-2" d="M402.18,330a5,5,0,0,1-5-4.16L391,291a5.05,5.05,0,1,1,10-1.78l6.25,34.88a5,5,0,0,1-4.09,5.86A4.53,4.53,0,0,1,402.18,330Z"/><line class="cls-1" x1="424.84" y1="284.9" x2="428.86" y2="307.36"/><path class="cls-2" d="M428.85,312.42a5.06,5.06,0,0,1-5-4.17l-4-22.46a5.05,5.05,0,1,1,9.95-1.78l4,22.46a5,5,0,0,1-4.08,5.87A5.47,5.47,0,0,1,428.85,312.42Z"/><line class="cls-1" x1="453.74" y1="279.72" x2="459.98" y2="314.6"/><path class="cls-2" d="M460,319.66a5,5,0,0,1-5-4.17l-6.25-34.88a5.05,5.05,0,0,1,9.95-1.78L465,313.71a5,5,0,0,1-4.08,5.87A5.47,5.47,0,0,1,460,319.66Z"/><line class="cls-1" x1="482.63" y1="274.55" x2="486.66" y2="297.02"/><path class="cls-2" d="M486.65,302.07a5.06,5.06,0,0,1-5-4.16l-4-22.47a5.05,5.05,0,1,1,9.95-1.78l4,22.46a5.06,5.06,0,0,1-4.08,5.87A5.47,5.47,0,0,1,486.65,302.07Z"/><line class="cls-1" x1="511.53" y1="269.38" x2="517.78" y2="304.26"/><path class="cls-2" d="M517.77,309.31a5.06,5.06,0,0,1-5-4.16l-6.24-34.88a5.05,5.05,0,0,1,9.95-1.79l6.24,34.88a5,5,0,0,1-4.08,5.87A5.47,5.47,0,0,1,517.77,309.31Z"/><line class="cls-1" x1="540.43" y1="264.2" x2="544.46" y2="286.67"/><path class="cls-2" d="M544.45,291.72a5.05,5.05,0,0,1-5-4.16l-4-22.47a5.05,5.05,0,0,1,9.95-1.78l4,22.47a5.06,5.06,0,0,1-4.08,5.86A4.63,4.63,0,0,1,544.45,291.72Z"/><line class="cls-1" x1="569.33" y1="259.03" x2="575.58" y2="293.91"/><path class="cls-2" d="M575.57,299a5.06,5.06,0,0,1-5-4.16l-6.24-34.88a5.05,5.05,0,1,1,9.95-1.78L580.55,293a5.06,5.06,0,0,1-4.08,5.86A4.56,4.56,0,0,1,575.57,299Z"/><line class="cls-1" x1="598.23" y1="253.85" x2="602.25" y2="276.32"/><path class="cls-2" d="M602.25,281.38a5.06,5.06,0,0,1-5-4.17l-4-22.47a5.05,5.05,0,0,1,10-1.78l4,22.47a5.06,5.06,0,0,1-4.09,5.87A5.45,5.45,0,0,1,602.25,281.38Z"/></g></g></svg>