<svg xmlns="http://www.w3.org/2000/svg" xmlns:xlink="http://www.w3.org/1999/xlink" viewBox="0 0 46.45 50.33"><defs><style>.cls-1{fill:none;}.cls-2{clip-path:url(#clip-path);}</style><clipPath id="clip-path" transform="translate(0 0)"><rect class="cls-1" width="46.45" height="50.33"/></clipPath></defs><g id="Layer_2" data-name="Layer 2"><g id="Layer_1-2" data-name="Layer 1"><g id="그룹_17" data-name="그룹 17"><g class="cls-2"><g id="그룹_15" data-name="그룹 15"><path id="패스_20" data-name="패스 20" d="M43.87,50.33a2.55,2.55,0,0,1-1.82-.76L23.3,30.94a.14.14,0,0,0-.15,0L4.41,49.57a2.59,2.59,0,0,1-2.82.56A2.56,2.56,0,0,1,0,47.76V2.56A2.58,2.58,0,0,1,2.58,0H43.87a2.57,2.57,0,0,1,2.58,2.56v45.2a2.56,2.56,0,0,1-2.58,2.56M23.23,28.45a2.58,2.58,0,0,1,1.82.75L43.8,47.83,44,2.56l-41.4-.1-.1,45.29L21.4,29.2a2.62,2.62,0,0,1,1.83-.75" transform="translate(0 0)"/></g></g></g></g></g></svg>