<svg xmlns="http://www.w3.org/2000/svg" xmlns:xlink="http://www.w3.org/1999/xlink" viewBox="0 0 56.29 45.03"><defs><style>.cls-1{fill:none;}.cls-2{clip-path:url(#clip-path);}</style><clipPath id="clip-path" transform="translate(0)"><rect class="cls-1" width="56.29" height="45.04"/></clipPath></defs><g id="Layer_2" data-name="Layer 2"><g id="Layer_1-2" data-name="Layer 1"><g id="그룹_18" data-name="그룹 18"><g class="cls-2"><g id="그룹_18-2" data-name="그룹 18-2"><path id="패스_21" data-name="패스 21" d="M53.87,25H2.42a2.49,2.49,0,0,1,0-5H53.87a2.49,2.49,0,0,1,0,5" transform="translate(0)"/><path id="패스_22" data-name="패스 22" d="M53.87,5H2.42A2.46,2.46,0,0,1,0,2.49H0A2.45,2.45,0,0,1,2.42,0H53.87a2.45,2.45,0,0,1,2.42,2.49h0A2.45,2.45,0,0,1,53.87,5h0" transform="translate(0)"/><path id="패스_23" data-name="패스 23" d="M53.87,45H2.42a2.49,2.49,0,0,1,0-5H53.87a2.49,2.49,0,0,1,0,5" transform="translate(0)"/></g></g></g></g></g></svg>